{"title":"Avatar.2009.SE.DVDRip.XviD-EXViD","uid":6633970,"size":2271065046,"categoryP":"video","categoryS":"movies","magnet":"?xt=urn:btih:7a5b3172a82282d127f045ff8d586c2e542380b0&amp;dn=Avatar.2009.SE.DVDRip.XviD-EXViD&amp;tr=udp%3A%2F%2Ftracker.openbittorrent.com%3A80&amp;tr=udp%3A%2F%2Fopen.demonii.com%3A1337&amp;tr=udp%3A%2F%2Ftracker.coppersurfer.tk%3A6969&amp;tr=udp%3A%2F%2Fexodus.desync.com%3A6969","seeders":0,"leechers":1,"uploader":"sceneline","files":159,"time":1314476566,"description":"- &lt;a href=&quot;\nhttp://www.Speed.Cd&quot; rel=&quot;nofollow&quot; target=&quot;_NEW&quot;&gt;\nhttp://www.Speed.Cd&lt;/a&gt; \n       &lt;a href=&quot;\nhttp://www.Speed.Cd&quot; rel=&quot;nofollow&quot; target=&quot;_NEW&quot;&gt;\nhttp://www.Speed.Cd&lt;/a&gt;      fast  and The Hottest Private Tracker on the net\n\n(((--Submit for invite!!--)))\n\nPlease Seed back to make the speed Faster!!!\n\n------------------nfo--------------------------\n-                                                                                                     \n       \n     \n     \n       \n       \n     \n     \n                                         \n                                         \n                EXVID                    \n                                         \n         \n                                         \n         Filled the Archives             \n                                         \n         \n                                         \n                With:                    \n                                         \n         \n                                         \n                                    \n     E240                           \n                                    \n     SP               (C) 2009      \n                                         \n     \n     \n     \n                                                                                  \n                                                                                   \n                    Avatar.2009.SE.DVDRip.XviD-EXViD                                \n                                                                                   \n                                                                                  \n     \n                                                                                               \nEXViD aims to iNTERNAL those releases which have been lost in the archives.\nEXViD aims to PRE non-internal releases which have poor sources and are likely skipped by others. &lt;a href=&quot;\nhttp://www.imdb.com/title/tt0499549/&quot; rel=&quot;nofollow&quot; target=&quot;_NEW&quot;&gt;\nhttp://www.imdb.com/title/tt0499549/&lt;/a&gt;\nSubtitles: EN, FR, NL\nDate: 2011.08\n\nDirector: James Cameron\n\nGenres: Action | Adventure | Fantasy | Sci-Fi\n\nPlot:\nWhen his brother is killed in a robbery, paraplegic Marine Jake Sully decides to take his\nplace in a mission on the distant world of Pandora. There he learns of greedy corporate\nfigurehead Parker Selfridge's intentions of driving off the native humanoid &quot;Na'vi&quot; in order\nto mine for the precious material scattered throughout their rich woodland. In exchange for\nthe spinal surgery that will fix his legs, Jake gathers intel for the cooperating military\nunit spearheaded by gung-ho Colonel Quaritch, while simultaneously attempting to infiltrate\nthe Na'vi people with the use of an &quot;avatar&quot; identity. While Jake begins to bond with the\nnative tribe and quickly falls in love with the beautiful alien Neytiri, the restless Colonel\nmoves forward with his ruthless extermination tactics, forcing the soldier to take a stand -\nand fight back in an epic battle for the fate of Pandora.\n\nCast:\nSam Worthington \t ... \t Jake Sully\nZoe Saldana \t ... \t Neytiri (as Zo Saldana)\nSigourney Weaver \t ... \t Grace\nStephen Lang \t ... \t Colonel Miles Quaritch\nMichelle Rodriguez \t ... \t Trudy Chacon\nGiovanni Ribisi \t ... \t Parker Selfridge\nJoel David Moore \t ... \t Norm Spellman\nCCH Pounder \t ... \t Mo'at (as Carol Christine Hilaria Pounder)\nWes Studi \t ... \t Eytukan\nLaz Alonso \t ... \t Tsu'tey\nDileep Rao \t ... \t Dr. Max Patel\nMatt Gerald \t ... \t Corporal Lyle Wainfleet\nSean Anthony Moran \t ... \t Private Fike\nJason Whyte \t ... \t Cryo Vault Med Tech\nScott Lawrence \t ... \t Venture Star Crew Chief\n\nStats:\nFormat                           : AVI\nFormat/Info                      : Audio Video Interleave\nFormat profile                   : OpenDML\nFile size                        : 2.05 GiB\nDuration                         : 2h 43mn\nOverall bit rate                 : 1 797 Kbps\nWriting application              : Nandub v1.0rc2\nWriting library                  : Nandub build 1852/release\n\nVideo\nID                               : 0\nFormat                           : MPEG-4 Visual\nFormat profile                   : Advanced Simple@L5\nFormat settings, BVOP            : 2\nFormat settings, QPel            : No\nFormat settings, GMC             : No warppoints\nFormat settings, Matrix          : Default (H.263)\nCodec ID                         : XVID\nCodec ID/Hint                    : XviD\nDuration                         : 2h 43mn\nBit rate                         : 1 340 Kbps\nWidth                            : 624 pixels\nHeight                           : 352 pixels\nDisplay aspect ratio             : 16:9\nFrame rate                       : 25.000 fps\nColor space                      : YUV\nChroma subsampling               : 4:2:0\nBit depth                        : 8 bits\nScan type                        : Progressive\nCompression mode                 : Lossy\nBits/(Pixel*Frame)               : 0.244\nStream size                      : 1.53 GiB (75%)\nWriting library                  : XviD 64\n\nAudio\nID                               : 1\nFormat                           : AC-3\nFormat/Info                      : Audio Coding 3\nMode extension                   : CM (complete main)\nCodec ID                         : 2000\nDuration                         : 2h 43mn\nBit rate mode                    : Constant\nBit rate                         : 448 Kbps\nChannel(s)                       : 6 channels\nChannel positions                : Front: L C R, Side: L R, LFE\nSampling rate                    : 48.0 KHz\nBit depth                        : 16 bits\nCompression mode                 : Lossy\nStream size                      : 524 MiB (25%)\nAlignment                        : Aligned on interleaves\nInterleave, duration             : 96 ms (2.40 video frames)\nInterleave, preload duration     : 96 ms\n\n\n\n\nRelease notes:\nThis is the Special Edition. For differences between THEATRiCAL, SE and EXTENDED, see: &lt;a href=&quot;\nhttp://www.movie-censorship.com/report.php?ID=659729&quot; rel=&quot;nofollow&quot; target=&quot;_NEW&quot;&gt;\nhttp://www.movie-censorship.com/report.php?ID=659729&lt;/a&gt;\nhttp://www.movie-censorship.com/report.php?ID=869530\n\nAlso, we made it 3CD because the 2CD 576x320 + 128 kbps mp3 encode had an average I/P quant\nabove 4.5 (picture of 2CD encode stats included for proof):\n\n&quot;If at the lowest resolution allowed and MP3 audio bitrate of 128 kbps average I/P quant is\n above 4.5, releases may jump 1 size up (e.g. 2 CDs may be used instead of 1). Such cases\n MUST provide proper proof and explanation in the nfo.&quot;\n\nenjoy!\n\nLooking for:\n75TB+ Archives\nDUTCH/FLEMiSH Archives\n                                                                                                    \nGreets: CRBS EPiSODE FiCO FLS iLS KLASSiGER LiPSYNC MADE NODLABS RUNNER SPRiNTER      \n   \n\n                                                                    ASCII DONE BY XX^NFO 2oo9","torrent":{"xt":"urn:btih:7a5b3172a82282d127f045ff8d586c2e542380b0","amp;dn":"Avatar.2009.SE.DVDRip.XviD-EXViD","amp;tr":["udp%3A%2F%2Ftracker.openbittorrent.com%3A80","udp%3A%2F%2Fopen.demonii.com%3A1337","udp%3A%2F%2Ftracker.coppersurfer.tk%3A6969","udp%3A%2F%2Fexodus.desync.com%3A6969"],"infoHash":"7a5b3172a82282d127f045ff8d586c2e542380b0","infoHashBuffer":{"type":"Buffer","data":[122,91,49,114,168,34,130,209,39,240,69,255,141,88,108,46,84,35,128,176]},"announce":[],"urlList":[]}}